<svg width="25" height="25" viewBox="0 0 25 25" fill="none" xmlns="http://www.w3.org/2000/svg">
<path d="M2.08331 16.6667H22.9166V21.875H2.08331V16.6667ZM19.4375 11.9792C17.4062 11.9792 17.2604 13.0208 15.9687 13.0208C14.7291 13.0208 14.4896 11.9792 12.5 11.9792C10.4687 11.9792 10.3229 13.0208 9.03123 13.0208C7.79165 13.0208 7.55206 11.9792 5.56248 11.9792C3.53123 11.9792 3.3854 13.0208 2.09373 13.0208V15.1042C4.0729 15.1042 4.35415 14.0625 5.58331 14.0625C6.8229 14.0625 7.06248 15.1042 9.05206 15.1042C11.0833 15.1042 11.2291 14.0625 12.5208 14.0625C13.7604 14.0625 14 15.1042 15.9896 15.1042C18.0208 15.1042 18.1666 14.0625 19.4583 14.0625C20.6979 14.0625 20.9166 15.0833 22.9166 15.1042L22.9062 13.0417C21.2291 12.6979 21.2187 11.9792 19.4375 11.9792ZM22.9166 9.375C22.9375 5.20833 18.4583 3.125 12.5 3.125C6.55206 3.125 2.08331 5.20833 2.08331 9.375V10.4167H22.9166V9.375Z" fill="#9E9BF2"/>
</svg>
