<svg width="43" height="43" viewBox="0 0 43 43" fill="none" xmlns="http://www.w3.org/2000/svg">
<path fill-rule="evenodd" clip-rule="evenodd" d="M3.58331 21.5C3.58331 11.6047 11.6046 3.58337 21.5 3.58337C31.3954 3.58337 39.4166 11.6047 39.4166 21.5C39.4166 31.3954 31.3954 39.4167 21.5 39.4167C11.6046 39.4167 3.58331 31.3954 3.58331 21.5ZM21.5 7.16671C17.6985 7.16671 14.0528 8.67682 11.3648 11.3648C8.67676 14.0529 7.16665 17.6986 7.16665 21.5C7.16665 25.3015 8.67676 28.9472 11.3648 31.6352C14.0528 34.3233 17.6985 35.8334 21.5 35.8334C25.3014 35.8334 28.9472 34.3233 31.6352 31.6352C34.3232 28.9472 35.8333 25.3015 35.8333 21.5C35.8333 17.6986 34.3232 14.0529 31.6352 11.3648C28.9472 8.67682 25.3014 7.16671 21.5 7.16671Z" fill="#9E9BF2"/>
<path fill-rule="evenodd" clip-rule="evenodd" d="M23.2917 12.5417C23.2917 12.0665 23.1029 11.6108 22.7669 11.2748C22.4309 10.9388 21.9752 10.75 21.5 10.75C21.0248 10.75 20.5691 10.9388 20.2331 11.2748C19.8971 11.6108 19.7083 12.0665 19.7083 12.5417V19.7083H12.5417C12.0665 19.7083 11.6108 19.8971 11.2748 20.2331C10.9388 20.5691 10.75 21.0248 10.75 21.5C10.75 21.9752 10.9388 22.4309 11.2748 22.7669C11.6108 23.1029 12.0665 23.2917 12.5417 23.2917H19.7083V30.4583C19.7083 30.9335 19.8971 31.3892 20.2331 31.7252C20.5691 32.0612 21.0248 32.25 21.5 32.25C21.9752 32.25 22.4309 32.0612 22.7669 31.7252C23.1029 31.3892 23.2917 30.9335 23.2917 30.4583V23.2917H30.4583C30.9335 23.2917 31.3892 23.1029 31.7252 22.7669C32.0612 22.4309 32.25 21.9752 32.25 21.5C32.25 21.0248 32.0612 20.5691 31.7252 20.2331C31.3892 19.8971 30.9335 19.7083 30.4583 19.7083H23.2917V12.5417Z" fill="#9E9BF2"/>
</svg>
