<svg width="25" height="25" viewBox="0 0 25 25" fill="none" xmlns="http://www.w3.org/2000/svg">
<path d="M17.1875 7.22656C16.9759 7.22656 16.7928 7.14925 16.6382 6.99463C16.4836 6.84001 16.4062 6.6569 16.4062 6.44531C16.4062 6.03027 16.4836 5.63151 16.6382 5.24902C16.7928 4.86654 17.0207 4.52881 17.3218 4.23584L18.2861 3.25928C18.5954 2.95003 18.75 2.57975 18.75 2.14844C18.75 1.93685 18.8273 1.75374 18.9819 1.59912C19.1366 1.4445 19.3197 1.36719 19.5312 1.36719C19.7428 1.36719 19.9259 1.4445 20.0806 1.59912C20.2352 1.75374 20.3125 1.93685 20.3125 2.14844C20.3125 2.56348 20.2352 2.96224 20.0806 3.34473C19.9259 3.72721 19.6981 4.06494 19.397 4.35791L18.4326 5.33447C18.1234 5.64372 17.9688 6.014 17.9688 6.44531C17.9688 6.6569 17.8914 6.84001 17.7368 6.99463C17.5822 7.14925 17.3991 7.22656 17.1875 7.22656ZM12.5 7.22656C12.2884 7.22656 12.1053 7.14925 11.9507 6.99463C11.7961 6.84001 11.7188 6.6569 11.7188 6.44531C11.7188 6.03027 11.7961 5.63151 11.9507 5.24902C12.1053 4.86654 12.3332 4.52881 12.6343 4.23584L13.5986 3.25928C13.9079 2.95003 14.0625 2.57975 14.0625 2.14844C14.0625 1.93685 14.1398 1.75374 14.2944 1.59912C14.4491 1.4445 14.6322 1.36719 14.8438 1.36719C15.0553 1.36719 15.2384 1.4445 15.3931 1.59912C15.5477 1.75374 15.625 1.93685 15.625 2.14844C15.625 2.56348 15.5477 2.96224 15.3931 3.34473C15.2384 3.72721 15.0106 4.06494 14.7095 4.35791L13.7451 5.33447C13.4359 5.64372 13.2812 6.014 13.2812 6.44531C13.2812 6.6569 13.2039 6.84001 13.0493 6.99463C12.8947 7.14925 12.7116 7.22656 12.5 7.22656ZM22.6562 9.375C22.9818 9.375 23.2869 9.43604 23.5718 9.55811C23.8566 9.68018 24.1048 9.847 24.3164 10.0586C24.528 10.2702 24.6948 10.5184 24.8169 10.8032C24.939 11.0881 25 11.3932 25 11.7188V16.4062C25 16.7318 24.939 17.0369 24.8169 17.3218C24.6948 17.6066 24.528 17.8548 24.3164 18.0664C24.1048 18.278 23.8566 18.4448 23.5718 18.5669C23.2869 18.689 22.9818 18.75 22.6562 18.75H21.9604C21.9442 18.807 21.932 18.8599 21.9238 18.9087C21.9157 18.9575 21.8994 19.0063 21.875 19.0552V19.5312C21.875 20.0684 21.7733 20.5729 21.5698 21.0449C21.3664 21.5169 21.0856 21.932 20.7275 22.29C20.3695 22.6481 19.9544 22.9289 19.4824 23.1323C19.0104 23.3358 18.5059 23.4375 17.9688 23.4375H13.2812C12.6465 23.4375 12.0605 23.2951 11.5234 23.0103C10.9863 22.7254 10.5387 22.347 10.1807 21.875H4.07715C3.54004 21.875 3.03548 21.7733 2.56348 21.5698C2.09147 21.3664 1.67643 21.0897 1.31836 20.7397C0.960286 20.3898 0.679525 19.9748 0.476074 19.4946C0.272624 19.0145 0.170898 18.5059 0.170898 17.9688V17.1875H3.2959C3.2959 16.5446 3.41797 15.9383 3.66211 15.3687C3.90625 14.799 4.24398 14.3026 4.67529 13.8794C5.10661 13.4562 5.60303 13.1185 6.16455 12.8662C6.72607 12.6139 7.33236 12.4919 7.9834 12.5C8.22754 12.5 8.46354 12.5203 8.69141 12.561C8.91927 12.6017 9.14714 12.6587 9.375 12.7319V7.8125H21.875V9.375H22.6562ZM7.9834 14.0625C7.55208 14.0625 7.14925 14.1439 6.7749 14.3066C6.40055 14.4694 6.06689 14.6932 5.77393 14.978C5.48096 15.2629 5.25716 15.5924 5.10254 15.9668C4.94792 16.3411 4.86654 16.748 4.8584 17.1875H9.375V14.4043C9.16341 14.2985 8.94368 14.2171 8.71582 14.1602C8.48796 14.1032 8.24382 14.0706 7.9834 14.0625ZM4.07715 20.3125H9.46045C9.40348 20.0765 9.375 19.8161 9.375 19.5312V18.75H1.86768C1.94906 18.9779 2.06299 19.1854 2.20947 19.3726C2.35596 19.5597 2.52279 19.7266 2.70996 19.873C2.89714 20.0195 3.10872 20.1253 3.34473 20.1904C3.58073 20.2555 3.82487 20.2962 4.07715 20.3125ZM9.729 21.1304V21.1426L9.74121 21.167V21.1548L9.729 21.1304ZM20.3125 19.5312V9.375H10.9375V19.5312C10.9375 19.8568 10.9985 20.1619 11.1206 20.4468C11.2427 20.7316 11.4095 20.9798 11.6211 21.1914C11.8327 21.403 12.0809 21.5698 12.3657 21.6919C12.6506 21.814 12.9557 21.875 13.2812 21.875H17.9688C18.2943 21.875 18.5994 21.814 18.8843 21.6919C19.1691 21.5698 19.4173 21.403 19.6289 21.1914C19.8405 20.9798 20.0073 20.7316 20.1294 20.4468C20.2515 20.1619 20.3125 19.8568 20.3125 19.5312ZM23.4375 16.4062V11.7188C23.4375 11.5072 23.3602 11.3241 23.2056 11.1694C23.0509 11.0148 22.8678 10.9375 22.6562 10.9375H21.875V17.1875H22.6562C22.8678 17.1875 23.0509 17.1102 23.2056 16.9556C23.3602 16.8009 23.4375 16.6178 23.4375 16.4062Z" fill="#9E9BF2"/>
</svg>
