<svg width="25" height="25" viewBox="0 0 25 25" fill="none" xmlns="http://www.w3.org/2000/svg">
<path d="M5.66667 8.29167L6.20833 7.73958C6.8125 7.13542 7.8125 7.13542 8.4375 7.78125L8.45833 7.8125C8.96875 8.33333 9.64583 8.58333 10.3854 8.65625C11.3958 8.75 12.375 9.29167 13.0208 10.2708C13.7292 11.3958 13.7188 12.8958 12.9792 14.0104C12.7002 14.4515 12.3251 14.8239 11.8819 15.0995C11.4387 15.3751 10.9388 15.5469 10.4198 15.602C9.90082 15.6571 9.37606 15.5941 8.88485 15.4177C8.39364 15.2413 7.9487 14.956 7.58333 14.5833C7 14.0104 6.66667 13.2708 6.58333 12.5C6.5 11.7396 6.19792 11.0208 5.66667 10.4896C5.0625 9.89583 5.0625 8.89583 5.66667 8.29167ZM10.0417 16.6667C8.82292 16.6667 7.6875 16.1979 6.84375 15.3333C6.11458 14.5833 5.65625 13.6458 5.54167 12.625C5.51042 12.3125 5.41667 11.9062 5.16667 11.5312C4.54167 12.3958 4.16667 13.4375 4.16667 14.5833C4.16667 16.2917 5 17.8021 6.28125 18.75H19.7917V17.7083C19.7917 13.9583 17.3021 10.7812 13.8958 9.73958C14.8229 11.1979 14.8021 13.1458 13.8542 14.5833C13.0208 15.8854 11.5833 16.6667 10.0417 16.6667ZM15.3958 7.875H16.7187C17.625 7.875 18.4167 8.51042 18.4167 9.64583V10.4167H19.7188V9.375C19.7188 7.8125 18.3333 6.625 16.7187 6.625H15.3958C14.5312 6.625 13.7917 5.77083 13.7917 4.89583C13.7917 4.02083 14.5312 3.375 15.3958 3.375V2.08333C13.7917 2.08333 12.5 3.375 12.5 4.97917C12.5 6.58333 13.7917 7.875 15.3958 7.875ZM4.6875 7.86458C4.75 7.76042 4.83333 7.65625 4.92708 7.55208L5.46875 7.01042C5.5625 6.91667 5.66667 6.84375 5.77083 6.77083L4.30208 5.28125C4.44792 5 4.39583 4.63542 4.16667 4.39583C4.0175 4.25063 3.81755 4.16938 3.60937 4.16938C3.4012 4.16938 3.20125 4.25063 3.05208 4.39583C2.90625 4.54167 2.83333 4.71875 2.82292 4.90625C2.63542 4.91667 2.45833 4.98958 2.3125 5.13542C2.01042 5.4375 2.01042 5.9375 2.3125 6.25C2.55208 6.47917 2.90625 6.53125 3.19792 6.38542L4.6875 7.86458ZM19.1562 4.57292C19.6875 4.04167 20.0208 3.32292 20.0208 2.52083H18.7188C18.7188 3.38542 17.9896 4.11458 17.125 4.11458V5.40625C19.0625 5.40625 20.5833 6.98958 20.5833 8.92708V11.4583H21.875V8.92708C21.8802 8.01845 21.6275 7.12698 21.1462 6.35624C20.665 5.58549 19.9749 4.96711 19.1562 4.57292ZM5.20833 21.875H19.7917C20.9479 21.875 21.875 20.9479 21.875 19.7917H3.125C3.125 20.3442 3.34449 20.8741 3.73519 21.2648C4.12589 21.6555 4.6558 21.875 5.20833 21.875Z" fill="#9E9BF2"/>
</svg>
