<svg width="346" height="67" viewBox="0 0 346 67" fill="none" xmlns="http://www.w3.org/2000/svg">
<rect width="40" height="67" rx="20" fill="#F7E8E5" fill-opacity="0.9"/>
<rect x="51" width="40" height="67" rx="20" fill="#F7E8E5" fill-opacity="0.9"/>
<rect x="102" width="40" height="67" rx="20" fill="#F7E8E5" fill-opacity="0.9"/>
<rect x="153" width="40" height="67" rx="20" fill="#F7E8E5" fill-opacity="0.9"/>
<rect x="204" width="40" height="67" rx="20" fill="#F7E8E5" fill-opacity="0.9"/>
<rect x="255" width="40" height="67" rx="20" fill="#F27E63" fill-opacity="0.7"/>
<rect x="306" width="40" height="67" rx="20" fill="#F7E8E5" fill-opacity="0.9"/>
<path d="M18.5433 44.864H17.4793L17.7033 40.076H22.4773L22.3513 41H18.7113L18.5853 43.73C18.8093 43.59 19.0473 43.4827 19.2993 43.408C19.5513 43.324 19.7987 43.282 20.0413 43.282C20.732 43.282 21.292 43.4127 21.7213 43.674C22.16 43.9353 22.482 44.2807 22.6873 44.71C22.902 45.1393 23.0093 45.6107 23.0093 46.124C23.0093 46.656 22.8787 47.146 22.6173 47.594C22.3653 48.042 21.9967 48.3967 21.5113 48.658C21.026 48.9287 20.4287 49.064 19.7193 49.064C19.3833 49.064 19.0473 49.0267 18.7113 48.952C18.3847 48.8773 18.072 48.7793 17.7733 48.658C17.484 48.5367 17.2227 48.4153 16.9893 48.294L17.5493 47.524C17.8853 47.72 18.2167 47.874 18.5433 47.986C18.8793 48.0887 19.29 48.14 19.7753 48.14C20.41 48.14 20.9233 47.9627 21.3153 47.608C21.7073 47.244 21.9033 46.7493 21.9033 46.124C21.9033 45.508 21.7353 45.032 21.3993 44.696C21.0633 44.36 20.6293 44.192 20.0973 44.192C19.7333 44.192 19.4113 44.276 19.1313 44.444C18.8607 44.6027 18.6647 44.7427 18.5433 44.864Z" fill="black"/>
<path d="M9.75698 27.538L10.009 26.67C10.1863 26.7447 10.3963 26.8287 10.639 26.922C10.891 27.0153 11.1663 27.0947 11.465 27.16C11.7636 27.216 12.0576 27.244 12.347 27.244C12.851 27.244 13.271 27.1787 13.607 27.048C13.943 26.9173 14.195 26.7353 14.363 26.502C14.5403 26.2593 14.629 25.9933 14.629 25.704C14.629 25.3587 14.531 25.0647 14.335 24.822C14.1483 24.5793 13.8683 24.3553 13.495 24.15C13.1216 23.9353 12.6596 23.716 12.109 23.492C11.6983 23.3053 11.3343 23.1187 11.017 22.932C10.709 22.736 10.4476 22.526 10.233 22.302C10.0276 22.0687 9.86898 21.8167 9.75698 21.546C9.65431 21.2753 9.60298 20.9767 9.60298 20.65C9.60298 20.1927 9.72431 19.7867 9.96698 19.432C10.219 19.0773 10.569 18.7927 11.017 18.578C11.4743 18.3633 12.0156 18.256 12.641 18.256C13.1076 18.256 13.5556 18.3167 13.985 18.438C14.4143 18.5593 14.7783 18.6947 15.077 18.844L14.699 19.698C14.5403 19.6233 14.363 19.5487 14.167 19.474C13.9803 19.3993 13.7656 19.3387 13.523 19.292C13.2896 19.236 13.0143 19.208 12.697 19.208C12.0996 19.208 11.6096 19.334 11.227 19.586C10.8536 19.838 10.667 20.188 10.667 20.636C10.667 20.972 10.7603 21.2613 10.947 21.504C11.143 21.7467 11.4323 21.9753 11.815 22.19C12.1976 22.3953 12.6643 22.6333 13.215 22.904C13.6256 23.0813 13.985 23.2633 14.293 23.45C14.601 23.6367 14.8623 23.8373 15.077 24.052C15.2916 24.2667 15.455 24.5093 15.567 24.78C15.679 25.0413 15.735 25.3447 15.735 25.69C15.735 26.1753 15.5996 26.6047 15.329 26.978C15.0676 27.3513 14.685 27.6453 14.181 27.86C13.6863 28.0747 13.0796 28.182 12.361 28.182C12.165 28.182 11.941 28.1633 11.689 28.126C11.4463 28.0887 11.199 28.042 10.947 27.986C10.695 27.93 10.4663 27.8647 10.261 27.79C10.0556 27.706 9.88764 27.622 9.75698 27.538ZM21.5967 21.21H22.7027V28H21.8767L21.6807 27.02C21.4754 27.2347 21.228 27.4353 20.9387 27.622C20.6587 27.7993 20.36 27.9393 20.0427 28.042C19.7347 28.1447 19.4314 28.196 19.1327 28.196C18.638 28.196 18.232 28.0933 17.9147 27.888C17.5974 27.6827 17.364 27.398 17.2147 27.034C17.0747 26.67 17.0047 26.2593 17.0047 25.802V21.21H18.0967V25.648C18.0967 26.1147 18.1854 26.4973 18.3627 26.796C18.54 27.0947 18.8574 27.244 19.3147 27.244C19.5574 27.244 19.8094 27.1927 20.0707 27.09C20.3414 26.978 20.612 26.8287 20.8827 26.642C21.1534 26.446 21.3914 26.236 21.5967 26.012V21.21ZM25.5629 28H24.4709V21.21H25.2829L25.4789 22.176C25.6935 21.952 25.9409 21.7513 26.2209 21.574C26.5009 21.3967 26.7995 21.2567 27.1169 21.154C27.4342 21.0513 27.7422 21 28.0409 21C28.5355 21 28.9369 21.1073 29.2449 21.322C29.5622 21.5273 29.7955 21.812 29.9449 22.176C30.0942 22.5307 30.1689 22.9413 30.1689 23.408V28H29.0629V23.548C29.0629 23.0813 28.9742 22.6987 28.7969 22.4C28.6289 22.1013 28.3115 21.952 27.8449 21.952C27.6209 21.952 27.3689 22.008 27.0889 22.12C26.8182 22.232 26.5522 22.3813 26.2909 22.568C26.0295 22.7453 25.7869 22.9507 25.5629 23.184V28Z" fill="black"/>
<path d="M63.81 24.794L63.418 24.864L60.604 20.804V28H59.512V18.48H60.156L63.572 23.338L66.89 18.48H67.59V28H66.47V20.832L63.81 24.794ZM72.57 28.182C71.898 28.1913 71.3194 28.042 70.834 27.734C70.3487 27.4167 69.9754 26.992 69.714 26.46C69.462 25.9187 69.336 25.2933 69.336 24.584C69.3454 23.8933 69.4807 23.282 69.742 22.75C70.0127 22.218 70.3954 21.798 70.89 21.49C71.394 21.182 71.9867 21.028 72.668 21.028C73.3494 21.028 73.9327 21.1773 74.418 21.476C74.9034 21.7747 75.2767 22.19 75.538 22.722C75.7994 23.254 75.93 23.8887 75.93 24.626C75.93 25.3167 75.79 25.928 75.51 26.46C75.2394 26.992 74.852 27.412 74.348 27.72C73.8534 28.028 73.2607 28.182 72.57 28.182ZM72.598 27.244C73.0647 27.244 73.4614 27.1273 73.788 26.894C74.1147 26.6607 74.362 26.348 74.53 25.956C74.7074 25.564 74.796 25.1253 74.796 24.64C74.796 24.1267 74.712 23.6693 74.544 23.268C74.3854 22.8667 74.1474 22.5493 73.83 22.316C73.522 22.0827 73.13 21.966 72.654 21.966C72.1967 21.966 71.8047 22.0827 71.478 22.316C71.1514 22.5493 70.8994 22.862 70.722 23.254C70.554 23.646 70.4654 24.0847 70.456 24.57C70.456 25.074 70.5354 25.5313 70.694 25.942C70.8527 26.3433 71.0907 26.6607 71.408 26.894C71.7347 27.1273 72.1314 27.244 72.598 27.244ZM78.3539 28H77.2619V21.21H78.0739L78.2699 22.176C78.4845 21.952 78.7319 21.7513 79.0119 21.574C79.2919 21.3967 79.5905 21.2567 79.9079 21.154C80.2252 21.0513 80.5332 21 80.8319 21C81.3265 21 81.7279 21.1073 82.0359 21.322C82.3532 21.5273 82.5865 21.812 82.7359 22.176C82.8852 22.5307 82.9599 22.9413 82.9599 23.408V28H81.8539V23.548C81.8539 23.0813 81.7652 22.6987 81.5879 22.4C81.4199 22.1013 81.1025 21.952 80.6359 21.952C80.4119 21.952 80.1599 22.008 79.8799 22.12C79.6092 22.232 79.3432 22.3813 79.0819 22.568C78.8205 22.7453 78.5779 22.9507 78.3539 23.184V28Z" fill="black"/>
<path d="M118.473 18.48L118.599 19.362H115.323V28H114.203V19.362H111.011V18.48H118.473ZM124.15 21.21H125.256V28H124.43L124.234 27.02C124.029 27.2347 123.782 27.4353 123.492 27.622C123.212 27.7993 122.914 27.9393 122.596 28.042C122.288 28.1447 121.985 28.196 121.686 28.196C121.192 28.196 120.786 28.0933 120.468 27.888C120.151 27.6827 119.918 27.398 119.768 27.034C119.628 26.67 119.558 26.2593 119.558 25.802V21.21H120.65V25.648C120.65 26.1147 120.739 26.4973 120.916 26.796C121.094 27.0947 121.411 27.244 121.868 27.244C122.111 27.244 122.363 27.1927 122.624 27.09C122.895 26.978 123.166 26.8287 123.436 26.642C123.707 26.446 123.945 26.236 124.15 26.012V21.21ZM132.667 24.78H127.739C127.767 25.256 127.86 25.6807 128.019 26.054C128.187 26.4273 128.443 26.7213 128.789 26.936C129.134 27.1507 129.587 27.258 130.147 27.258C130.539 27.258 130.893 27.2067 131.211 27.104C131.528 26.992 131.864 26.8473 132.219 26.67L132.583 27.482C132.368 27.6033 132.135 27.72 131.883 27.832C131.64 27.9347 131.374 28.014 131.085 28.07C130.805 28.1353 130.497 28.168 130.161 28.168C129.367 28.168 128.705 28.0187 128.173 27.72C127.65 27.4213 127.258 27.0013 126.997 26.46C126.735 25.9187 126.605 25.2933 126.605 24.584C126.605 23.884 126.726 23.268 126.969 22.736C127.221 22.204 127.58 21.7887 128.047 21.49C128.523 21.182 129.097 21.028 129.769 21.028C130.45 21.028 131.001 21.1913 131.421 21.518C131.85 21.8447 132.163 22.2833 132.359 22.834C132.564 23.3847 132.667 24.0007 132.667 24.682V24.78ZM127.767 24.024H131.575C131.528 23.6133 131.435 23.254 131.295 22.946C131.155 22.638 130.954 22.4 130.693 22.232C130.441 22.0547 130.119 21.966 129.727 21.966C129.325 21.966 128.985 22.0547 128.705 22.232C128.434 22.4 128.219 22.638 128.061 22.946C127.911 23.254 127.813 23.6133 127.767 24.024Z" fill="black"/>
<path d="M171.651 18.48L169.047 28H167.969L165.799 20.132L163.741 28H162.677L159.933 18.564L161.025 18.382L163.209 26.488L165.281 18.48H166.359L168.515 26.488L170.587 18.48H171.651ZM178.321 24.78H173.393C173.421 25.256 173.514 25.6807 173.673 26.054C173.841 26.4273 174.098 26.7213 174.443 26.936C174.788 27.1507 175.241 27.258 175.801 27.258C176.193 27.258 176.548 27.2067 176.865 27.104C177.182 26.992 177.518 26.8473 177.873 26.67L178.237 27.482C178.022 27.6033 177.789 27.72 177.537 27.832C177.294 27.9347 177.028 28.014 176.739 28.07C176.459 28.1353 176.151 28.168 175.815 28.168C175.022 28.168 174.359 28.0187 173.827 27.72C173.304 27.4213 172.912 27.0013 172.651 26.46C172.39 25.9187 172.259 25.2933 172.259 24.584C172.259 23.884 172.38 23.268 172.623 22.736C172.875 22.204 173.234 21.7887 173.701 21.49C174.177 21.182 174.751 21.028 175.423 21.028C176.104 21.028 176.655 21.1913 177.075 21.518C177.504 21.8447 177.817 22.2833 178.013 22.834C178.218 23.3847 178.321 24.0007 178.321 24.682V24.78ZM173.421 24.024H177.229C177.182 23.6133 177.089 23.254 176.949 22.946C176.809 22.638 176.608 22.4 176.347 22.232C176.095 22.0547 175.773 21.966 175.381 21.966C174.98 21.966 174.639 22.0547 174.359 22.232C174.088 22.4 173.874 22.638 173.715 22.946C173.566 23.254 173.468 23.6133 173.421 24.024ZM184.075 26.908V18.27L185.195 18.13V28H184.523L184.075 26.908ZM184.397 26.236L184.747 27.034C184.551 27.2767 184.323 27.4867 184.061 27.664C183.8 27.8413 183.529 27.972 183.249 28.056C182.969 28.14 182.713 28.182 182.479 28.182C181.798 28.182 181.215 28.0327 180.729 27.734C180.244 27.426 179.875 27.0013 179.623 26.46C179.371 25.9187 179.245 25.2933 179.245 24.584C179.245 23.884 179.376 23.268 179.637 22.736C179.899 22.204 180.272 21.7887 180.757 21.49C181.252 21.182 181.835 21.028 182.507 21.028C182.75 21.028 183.011 21.0747 183.291 21.168C183.571 21.2613 183.837 21.392 184.089 21.56C184.351 21.728 184.575 21.9287 184.761 22.162L184.425 22.918C184.164 22.6287 183.884 22.4 183.585 22.232C183.296 22.0547 182.927 21.966 182.479 21.966C182.022 21.966 181.635 22.0827 181.317 22.316C181 22.5493 180.762 22.862 180.603 23.254C180.445 23.6367 180.365 24.0753 180.365 24.57C180.365 25.0833 180.44 25.5453 180.589 25.956C180.748 26.3573 180.981 26.6747 181.289 26.908C181.607 27.132 181.999 27.244 182.465 27.244C182.895 27.244 183.259 27.1553 183.557 26.978C183.856 26.8007 184.136 26.5533 184.397 26.236Z" fill="black"/>
<path d="M217.923 18.48L218.049 19.362H214.773V28H213.653V19.362H210.461V18.48H217.923ZM220.297 23.184L220.213 22.176C220.427 21.952 220.675 21.7513 220.955 21.574C221.235 21.3967 221.533 21.2567 221.851 21.154C222.168 21.0513 222.476 21 222.775 21C223.269 21 223.671 21.1073 223.979 21.322C224.296 21.5273 224.529 21.812 224.679 22.176C224.828 22.5307 224.903 22.9413 224.903 23.408V28H223.797V23.548C223.797 23.0813 223.708 22.6987 223.531 22.4C223.363 22.1013 223.045 21.952 222.579 21.952C222.355 21.952 222.103 22.008 221.823 22.12C221.552 22.232 221.286 22.3813 221.025 22.568C220.763 22.7453 220.521 22.9507 220.297 23.184ZM220.297 28H219.205V18.27L220.297 18.116V28ZM231.147 21.21H232.253V28H231.427L231.231 27.02C231.026 27.2347 230.779 27.4353 230.489 27.622C230.209 27.7993 229.911 27.9393 229.593 28.042C229.285 28.1447 228.982 28.196 228.683 28.196C228.189 28.196 227.783 28.0933 227.465 27.888C227.148 27.6827 226.915 27.398 226.765 27.034C226.625 26.67 226.555 26.2593 226.555 25.802V21.21H227.647V25.648C227.647 26.1147 227.736 26.4973 227.913 26.796C228.091 27.0947 228.408 27.244 228.865 27.244C229.108 27.244 229.36 27.1927 229.621 27.09C229.892 26.978 230.163 26.8287 230.433 26.642C230.704 26.446 230.942 26.236 231.147 26.012V21.21ZM235.114 28H234.022V21.21H234.68L235.016 22.302C235.193 22.162 235.408 22.008 235.66 21.84C235.921 21.6627 236.192 21.5133 236.472 21.392C236.761 21.2707 237.027 21.21 237.27 21.21L237.536 22.092C237.274 22.092 236.99 22.1527 236.682 22.274C236.383 22.3953 236.098 22.5493 235.828 22.736C235.557 22.9227 235.319 23.1187 235.114 23.324V28Z" fill="black"/>
<path d="M273.469 22.778L273.595 23.618H270.319V28H269.227V18.48H274.225L274.379 19.32H270.319V22.778H273.469ZM276.639 28H275.547V21.21H276.205L276.541 22.302C276.718 22.162 276.933 22.008 277.185 21.84C277.446 21.6627 277.717 21.5133 277.997 21.392C278.286 21.2707 278.552 21.21 278.795 21.21L279.061 22.092C278.8 22.092 278.515 22.1527 278.207 22.274C277.908 22.3953 277.624 22.5493 277.353 22.736C277.082 22.9227 276.844 23.1187 276.639 23.324V28ZM281.206 28H280.086V21.21H281.206V28ZM280.632 19.866C280.408 19.866 280.226 19.796 280.086 19.656C279.946 19.5067 279.876 19.3247 279.876 19.11C279.876 18.8953 279.946 18.718 280.086 18.578C280.226 18.4287 280.403 18.354 280.618 18.354C280.823 18.354 281.001 18.4287 281.15 18.578C281.309 18.718 281.388 18.8953 281.388 19.11C281.388 19.3247 281.313 19.5067 281.164 19.656C281.015 19.796 280.837 19.866 280.632 19.866Z" fill="black"/>
<path d="M317.507 27.538L317.759 26.67C317.936 26.7447 318.146 26.8287 318.389 26.922C318.641 27.0153 318.916 27.0947 319.215 27.16C319.514 27.216 319.808 27.244 320.097 27.244C320.601 27.244 321.021 27.1787 321.357 27.048C321.693 26.9173 321.945 26.7353 322.113 26.502C322.29 26.2593 322.379 25.9933 322.379 25.704C322.379 25.3587 322.281 25.0647 322.085 24.822C321.898 24.5793 321.618 24.3553 321.245 24.15C320.872 23.9353 320.41 23.716 319.859 23.492C319.448 23.3053 319.084 23.1187 318.767 22.932C318.459 22.736 318.198 22.526 317.983 22.302C317.778 22.0687 317.619 21.8167 317.507 21.546C317.404 21.2753 317.353 20.9767 317.353 20.65C317.353 20.1927 317.474 19.7867 317.717 19.432C317.969 19.0773 318.319 18.7927 318.767 18.578C319.224 18.3633 319.766 18.256 320.391 18.256C320.858 18.256 321.306 18.3167 321.735 18.438C322.164 18.5593 322.528 18.6947 322.827 18.844L322.449 19.698C322.29 19.6233 322.113 19.5487 321.917 19.474C321.73 19.3993 321.516 19.3387 321.273 19.292C321.04 19.236 320.764 19.208 320.447 19.208C319.85 19.208 319.36 19.334 318.977 19.586C318.604 19.838 318.417 20.188 318.417 20.636C318.417 20.972 318.51 21.2613 318.697 21.504C318.893 21.7467 319.182 21.9753 319.565 22.19C319.948 22.3953 320.414 22.6333 320.965 22.904C321.376 23.0813 321.735 23.2633 322.043 23.45C322.351 23.6367 322.612 23.8373 322.827 24.052C323.042 24.2667 323.205 24.5093 323.317 24.78C323.429 25.0413 323.485 25.3447 323.485 25.69C323.485 26.1753 323.35 26.6047 323.079 26.978C322.818 27.3513 322.435 27.6453 321.931 27.86C321.436 28.0747 320.83 28.182 320.111 28.182C319.915 28.182 319.691 28.1633 319.439 28.126C319.196 28.0887 318.949 28.042 318.697 27.986C318.445 27.93 318.216 27.8647 318.011 27.79C317.806 27.706 317.638 27.622 317.507 27.538ZM325.651 26.068C325.651 26.2547 325.693 26.446 325.777 26.642C325.87 26.8287 326.01 26.9827 326.197 27.104C326.383 27.2253 326.621 27.286 326.911 27.286C327.303 27.286 327.662 27.188 327.989 26.992C328.315 26.796 328.595 26.5627 328.829 26.292V24.738H327.051C326.593 24.738 326.243 24.8733 326.001 25.144C325.767 25.4053 325.651 25.7133 325.651 26.068ZM325.385 22.456L325.063 21.63C325.24 21.5087 325.464 21.406 325.735 21.322C326.015 21.2287 326.299 21.1587 326.589 21.112C326.878 21.056 327.116 21.028 327.303 21.028C327.825 21.028 328.283 21.126 328.675 21.322C329.076 21.518 329.389 21.7887 329.613 22.134C329.837 22.4793 329.949 22.876 329.949 23.324V28H329.109L328.969 27.314C328.754 27.5287 328.455 27.7247 328.073 27.902C327.699 28.0793 327.326 28.168 326.953 28.168C326.159 28.168 325.571 27.9673 325.189 27.566C324.806 27.1647 324.615 26.6653 324.615 26.068C324.615 25.4053 324.843 24.8967 325.301 24.542C325.758 24.178 326.351 23.996 327.079 23.996H328.829V23.618C328.829 23.1513 328.712 22.764 328.479 22.456C328.255 22.148 327.872 21.994 327.331 21.994C326.892 21.994 326.519 22.0453 326.211 22.148C325.912 22.2507 325.637 22.3533 325.385 22.456ZM334.321 21.322L334.671 22.162H333.089V26.082C333.089 26.4273 333.163 26.7073 333.313 26.922C333.462 27.1367 333.705 27.244 334.041 27.244C334.153 27.244 334.265 27.23 334.377 27.202C334.498 27.1647 334.591 27.132 334.657 27.104L334.923 27.972C334.848 28.0093 334.755 28.0467 334.643 28.084C334.531 28.1213 334.409 28.1493 334.279 28.168C334.148 28.196 334.017 28.21 333.887 28.21C333.504 28.21 333.168 28.1353 332.879 27.986C332.589 27.8273 332.365 27.6033 332.207 27.314C332.048 27.0247 331.969 26.6653 331.969 26.236V22.162H331.003L330.989 21.322H331.969V19.6L333.089 19.292V21.322H334.321Z" fill="black"/>
<path d="M68.3908 44.01C68.5961 43.786 68.8295 43.5667 69.0908 43.352C69.3521 43.1373 69.6461 42.9553 69.9728 42.806C70.3088 42.6567 70.6915 42.582 71.1208 42.582C71.7555 42.582 72.2968 42.708 72.7448 42.96C73.1928 43.2027 73.5335 43.534 73.7668 43.954C74.0001 44.3647 74.1168 44.8267 74.1168 45.34C74.1168 45.8813 73.9908 46.3667 73.7388 46.796C73.4868 47.2253 73.1321 47.566 72.6748 47.818C72.2268 48.0607 71.7181 48.182 71.1488 48.182C70.5328 48.182 69.9775 48.0373 69.4828 47.748C68.9881 47.4587 68.5961 47.034 68.3068 46.474C68.0268 45.914 67.8868 45.228 67.8868 44.416C67.8868 43.772 67.9848 43.1887 68.1808 42.666C68.3768 42.134 68.6475 41.6627 68.9928 41.252C69.3475 40.8413 69.7395 40.4867 70.1688 40.188C70.6075 39.8893 71.0601 39.6513 71.5268 39.474C72.0028 39.2967 72.4648 39.18 72.9128 39.124L73.1648 39.992C72.8008 40.0293 72.4228 40.1227 72.0308 40.272C71.6481 40.412 71.2701 40.5987 70.8968 40.832C70.5328 41.056 70.2061 41.3407 69.9168 41.686C69.6275 42.022 69.3941 42.4047 69.2168 42.834C69.0488 43.2633 68.9648 43.7487 68.9648 44.29C68.9648 44.9433 69.0535 45.4893 69.2308 45.928C69.4081 46.3667 69.6555 46.698 69.9728 46.922C70.2995 47.146 70.6775 47.258 71.1068 47.258C71.5175 47.258 71.8675 47.174 72.1568 47.006C72.4461 46.8287 72.6701 46.6047 72.8288 46.334C72.9875 46.054 73.0668 45.746 73.0668 45.41C73.0668 45.0273 72.9875 44.6913 72.8288 44.402C72.6701 44.1033 72.4461 43.8747 72.1568 43.716C71.8675 43.5573 71.5175 43.478 71.1068 43.478C70.7801 43.478 70.4628 43.5433 70.1548 43.674C69.8561 43.7953 69.5808 43.9587 69.3288 44.164C69.0861 44.3693 68.8715 44.584 68.6848 44.808L68.3908 44.01Z" fill="black"/>
<path d="M121.703 48.966L120.653 48.63L123.565 41H119.197L119.057 40.076H124.433L124.797 40.566L121.703 48.966Z" fill="black"/>
<path d="M173.003 38.998C173.609 38.998 174.118 39.1053 174.529 39.32C174.939 39.5347 175.252 39.8193 175.467 40.174C175.681 40.5287 175.789 40.9113 175.789 41.322C175.789 41.6207 175.719 41.896 175.579 42.148C175.439 42.4 175.257 42.6193 175.033 42.806C174.818 42.9927 174.589 43.142 174.347 43.254C174.664 43.3287 174.958 43.478 175.229 43.702C175.509 43.926 175.733 44.2013 175.901 44.528C176.078 44.8547 176.167 45.2047 176.167 45.578C176.167 46.0447 176.045 46.474 175.803 46.866C175.56 47.258 175.205 47.5753 174.739 47.818C174.272 48.0607 173.693 48.182 173.003 48.182C172.331 48.182 171.757 48.0653 171.281 47.832C170.805 47.5893 170.445 47.272 170.203 46.88C169.969 46.488 169.853 46.054 169.853 45.578C169.853 45.242 169.937 44.9107 170.105 44.584C170.273 44.2573 170.492 43.9727 170.763 43.73C171.043 43.4873 171.346 43.3287 171.673 43.254C171.262 43.086 170.917 42.834 170.637 42.498C170.366 42.162 170.231 41.77 170.231 41.322C170.231 40.9113 170.338 40.5333 170.553 40.188C170.767 39.8333 171.08 39.5487 171.491 39.334C171.901 39.11 172.405 38.998 173.003 38.998ZM172.975 39.894C172.611 39.894 172.303 39.964 172.051 40.104C171.799 40.2347 171.607 40.412 171.477 40.636C171.355 40.8507 171.295 41.084 171.295 41.336C171.295 41.7 171.439 42.0267 171.729 42.316C172.027 42.6053 172.452 42.792 173.003 42.876C173.367 42.82 173.675 42.7173 173.927 42.568C174.188 42.4187 174.384 42.2367 174.515 42.022C174.645 41.798 174.711 41.5693 174.711 41.336C174.711 40.944 174.566 40.608 174.277 40.328C173.987 40.0387 173.553 39.894 172.975 39.894ZM173.003 43.674C172.312 43.7673 171.789 43.996 171.435 44.36C171.089 44.7147 170.917 45.13 170.917 45.606C170.917 45.942 171.01 46.236 171.197 46.488C171.383 46.7307 171.635 46.922 171.953 47.062C172.27 47.202 172.62 47.272 173.003 47.272C173.376 47.272 173.721 47.2067 174.039 47.076C174.356 46.936 174.608 46.74 174.795 46.488C174.981 46.236 175.075 45.942 175.075 45.606C175.075 45.13 174.902 44.7147 174.557 44.36C174.211 43.996 173.693 43.7673 173.003 43.674Z" fill="black"/>
<path d="M226.599 44.066C226.393 44.2807 226.165 44.5 225.913 44.724C225.661 44.9387 225.367 45.1207 225.031 45.27C224.704 45.4193 224.317 45.494 223.869 45.494C223.253 45.494 222.721 45.3727 222.273 45.13C221.825 44.878 221.479 44.542 221.237 44.122C221.003 43.702 220.887 43.24 220.887 42.736C220.887 42.1853 221.013 41.7 221.265 41.28C221.526 40.8507 221.881 40.5147 222.329 40.272C222.777 40.02 223.281 39.894 223.841 39.894C224.466 39.894 225.026 40.0387 225.521 40.328C226.015 40.6173 226.403 41.042 226.683 41.602C226.972 42.1527 227.117 42.8387 227.117 43.66C227.117 44.304 227.019 44.892 226.823 45.424C226.627 45.9467 226.351 46.418 225.997 46.838C225.651 47.2487 225.259 47.6033 224.821 47.902C224.391 48.1913 223.939 48.4247 223.463 48.602C222.987 48.7793 222.525 48.896 222.077 48.952L221.825 48.084C222.189 48.0373 222.567 47.9487 222.959 47.818C223.351 47.678 223.729 47.4913 224.093 47.258C224.466 47.0247 224.797 46.74 225.087 46.404C225.376 46.0587 225.605 45.6713 225.773 45.242C225.95 44.8127 226.039 44.332 226.039 43.8C226.039 43.1373 225.95 42.5867 225.773 42.148C225.605 41.7093 225.357 41.378 225.031 41.154C224.704 40.93 224.321 40.818 223.883 40.818C223.491 40.818 223.145 40.902 222.847 41.07C222.548 41.238 222.319 41.462 222.161 41.742C222.002 42.022 221.923 42.33 221.923 42.666C221.923 43.0487 222.002 43.3847 222.161 43.674C222.319 43.9633 222.548 44.192 222.847 44.36C223.145 44.5187 223.495 44.598 223.897 44.598C224.223 44.598 224.536 44.5373 224.835 44.416C225.143 44.2853 225.423 44.1173 225.675 43.912C225.927 43.7067 226.137 43.492 226.305 43.268L226.599 44.066Z" fill="black"/>
<path d="M272.023 48H270.917V41.364L269.307 42.12L268.817 41.238L271.281 40.076H272.023V48ZM273.5 43.982C273.5 43.1887 273.659 42.4887 273.976 41.882C274.293 41.266 274.727 40.7807 275.278 40.426C275.838 40.0713 276.477 39.894 277.196 39.894C277.915 39.894 278.549 40.0713 279.1 40.426C279.66 40.7713 280.094 41.252 280.402 41.868C280.719 42.4747 280.878 43.17 280.878 43.954C280.878 44.7753 280.719 45.5033 280.402 46.138C280.094 46.7727 279.66 47.272 279.1 47.636C278.54 48 277.905 48.182 277.196 48.182C276.477 48.182 275.838 48.0047 275.278 47.65C274.727 47.286 274.293 46.7867 273.976 46.152C273.659 45.5173 273.5 44.794 273.5 43.982ZM274.592 43.94C274.592 44.5747 274.704 45.1393 274.928 45.634C275.152 46.1287 275.46 46.5207 275.852 46.81C276.244 47.09 276.692 47.23 277.196 47.23C277.7 47.23 278.143 47.0947 278.526 46.824C278.918 46.544 279.226 46.1613 279.45 45.676C279.674 45.1907 279.786 44.6353 279.786 44.01C279.786 43.394 279.674 42.848 279.45 42.372C279.226 41.896 278.918 41.5227 278.526 41.252C278.143 40.972 277.7 40.832 277.196 40.832C276.692 40.832 276.244 40.9673 275.852 41.238C275.46 41.5087 275.152 41.8773 274.928 42.344C274.704 42.8013 274.592 43.3333 274.592 43.94Z" fill="black"/>
<path d="M323.985 48H322.879V41.364L321.269 42.12L320.779 41.238L323.243 40.076H323.985V48ZM328.346 48H327.24V41.364L325.63 42.12L325.14 41.238L327.604 40.076H328.346V48Z" fill="black"/>
</svg>
