<svg width="43" height="43" viewBox="0 0 43 43" fill="none" xmlns="http://www.w3.org/2000/svg">
<path d="M7.16666 12.5416V10.75C7.16666 9.7996 7.54419 8.88817 8.21619 8.21616C8.8882 7.54415 9.79963 7.16663 10.75 7.16663H14.3333M7.16666 30.4583V32.25C7.16666 33.2003 7.54419 34.1118 8.21619 34.7838C8.8882 35.4558 9.79963 35.8333 10.75 35.8333H14.3333M28.6667 7.16663H32.25C33.2003 7.16663 34.1118 7.54415 34.7838 8.21616C35.4558 8.88817 35.8333 9.7996 35.8333 10.75V12.5416M28.6667 35.8333H32.25C33.2003 35.8333 34.1118 35.4558 34.7838 34.7838C35.4558 34.1118 35.8333 33.2003 35.8333 32.25V30.4583M8.95832 21.5H34.0417" stroke="#9E9BF2" stroke-width="3.58333" stroke-linecap="round" stroke-linejoin="round"/>
</svg>
