<svg width="25" height="25" viewBox="0 0 25 25" fill="none" xmlns="http://www.w3.org/2000/svg">
<path d="M10.7885 4.27396C9.74581 5.31667 9.14268 6.70625 8.79685 8.1C8.44998 9.5 8.34789 10.9615 8.34894 12.2146C8.34786 12.3033 8.31221 12.3881 8.24957 12.4509C8.18692 12.5138 8.10224 12.5497 8.01352 12.551C6.16873 12.5583 3.83019 12.7802 1.93852 13.6833C1.2281 14.0229 0.931227 14.7229 1.0781 15.3865C1.21664 16.0073 1.71873 16.5167 2.39789 16.6823C3.22602 16.8844 4.18644 17.1458 5.02185 17.4427C5.43956 17.5906 5.81352 17.7427 6.11769 17.8948C6.43227 18.0531 6.62498 18.1865 6.71977 18.2823C6.81456 18.376 6.94894 18.5688 7.10623 18.8833C7.25831 19.1875 7.41039 19.5604 7.55831 19.9781C7.85414 20.8125 8.11456 21.7729 8.31664 22.6C8.48227 23.2792 8.99164 23.7823 9.61352 23.9198C10.2771 24.0677 10.9771 23.7708 11.3166 23.0604C12.2198 21.1719 12.4416 18.8375 12.4521 16.9948C12.4521 16.8135 12.6052 16.6604 12.7885 16.6604C14.0406 16.6604 15.5031 16.5583 16.9031 16.2115C18.2989 15.8646 19.6885 15.2615 20.7323 14.2177C21.8989 13.051 22.4698 11.5 22.7291 9.99271C22.9896 8.48125 22.9469 6.9448 22.8281 5.73021C22.7443 4.81641 22.3432 3.9608 21.6943 3.31194C21.0454 2.66307 20.1898 2.26192 19.276 2.17813C18.0614 2.06042 16.526 2.01771 15.0135 2.27709C13.5062 2.5375 11.9552 3.10834 10.7885 4.27396ZM16.6666 5.20834C16.9429 5.20834 17.2079 5.31808 17.4032 5.51343C17.5986 5.70879 17.7083 5.97374 17.7083 6.25C17.7083 6.52627 17.5986 6.79122 17.4032 6.98657C17.2079 7.18192 16.9429 7.29167 16.6666 7.29167C16.3904 7.29167 16.1254 7.18192 15.9301 6.98657C15.7347 6.79122 15.625 6.52627 15.625 6.25C15.625 5.97374 15.7347 5.70879 15.9301 5.51343C16.1254 5.31808 16.3904 5.20834 16.6666 5.20834Z" fill="#9E9BF2"/>
</svg>
