<svg width="35" height="35" viewBox="0 0 35 35" fill="none" xmlns="http://www.w3.org/2000/svg">
<path d="M14.5833 8.74996H20.4167C20.4167 7.97641 20.1094 7.23455 19.5624 6.68756C19.0154 6.14058 18.2735 5.83329 17.5 5.83329C16.7264 5.83329 15.9846 6.14058 15.4376 6.68756C14.8906 7.23455 14.5833 7.97641 14.5833 8.74996ZM11.6667 8.74996C11.6667 7.20286 12.2812 5.71913 13.3752 4.62517C14.4692 3.53121 15.9529 2.91663 17.5 2.91663C19.0471 2.91663 20.5308 3.53121 21.6248 4.62517C22.7187 5.71913 23.3333 7.20286 23.3333 8.74996H30.625C31.0118 8.74996 31.3827 8.9036 31.6562 9.1771C31.9297 9.45059 32.0833 9.82152 32.0833 10.2083C32.0833 10.5951 31.9297 10.966 31.6562 11.2395C31.3827 11.513 31.0118 11.6666 30.625 11.6666H29.3387L28.0467 26.7458C27.9224 28.2019 27.2562 29.5583 26.1798 30.5467C25.1033 31.5351 23.6951 32.0835 22.2337 32.0833H12.7662C11.3049 32.0835 9.89664 31.5351 8.82021 30.5467C7.74377 29.5583 7.07754 28.2019 6.95332 26.7458L5.66124 11.6666H4.37499C3.98822 11.6666 3.61728 11.513 3.34379 11.2395C3.0703 10.966 2.91666 10.5951 2.91666 10.2083C2.91666 9.82152 3.0703 9.45059 3.34379 9.1771C3.61728 8.9036 3.98822 8.74996 4.37499 8.74996H11.6667ZM21.875 17.5C21.875 17.1132 21.7213 16.7423 21.4479 16.4688C21.1744 16.1953 20.8034 16.0416 20.4167 16.0416C20.0299 16.0416 19.6589 16.1953 19.3855 16.4688C19.112 16.7423 18.9583 17.1132 18.9583 17.5V23.3333C18.9583 23.7201 19.112 24.091 19.3855 24.3645C19.6589 24.638 20.0299 24.7916 20.4167 24.7916C20.8034 24.7916 21.1744 24.638 21.4479 24.3645C21.7213 24.091 21.875 23.7201 21.875 23.3333V17.5ZM14.5833 16.0416C14.9701 16.0416 15.341 16.1953 15.6145 16.4688C15.888 16.7423 16.0417 17.1132 16.0417 17.5V23.3333C16.0417 23.7201 15.888 24.091 15.6145 24.3645C15.341 24.638 14.9701 24.7916 14.5833 24.7916C14.1965 24.7916 13.8256 24.638 13.5521 24.3645C13.2786 24.091 13.125 23.7201 13.125 23.3333V17.5C13.125 17.1132 13.2786 16.7423 13.5521 16.4688C13.8256 16.1953 14.1965 16.0416 14.5833 16.0416ZM9.85832 26.4979C9.92045 27.2262 10.2538 27.9046 10.7923 28.3988C11.3308 28.8931 12.0353 29.1671 12.7662 29.1666H22.2337C22.9642 29.1663 23.6679 28.892 24.2058 28.3978C24.7437 27.9037 25.0767 27.2257 25.1387 26.4979L26.4104 11.6666H8.58957L9.85832 26.4979Z" fill="#F24405"/>
</svg>
